<svg width="24" height="20" viewBox="0 0 24 20" fill="none" xmlns="http://www.w3.org/2000/svg">
<g clip-path="url(#clip0_137_149)">
<path d="M12.5517 1.92041L2 12.4721L8.44828 18.9204L19 8.36869V1.92041H12.5517ZM15.4828 6.61007C15.2509 6.61007 15.0242 6.5413 14.8314 6.41248C14.6386 6.28365 14.4883 6.10055 14.3996 5.88632C14.3109 5.67208 14.2876 5.43635 14.3329 5.20893C14.3781 4.9815 14.4898 4.77259 14.6537 4.60863C14.8177 4.44466 15.0266 4.333 15.254 4.28777C15.4815 4.24253 15.7172 4.26575 15.9314 4.35448C16.1457 4.44322 16.3288 4.59349 16.4576 4.78629C16.5864 4.9791 16.6552 5.20577 16.6552 5.43765C16.6552 5.7486 16.5317 6.0468 16.3118 6.26667C16.0919 6.48654 15.7937 6.61007 15.4828 6.61007Z" fill="#2076E2"/>
<path d="M19.8072 3.92041V9.25374L10 18.9982L10.9356 19.9204L21 9.84634V3.92041H19.8072Z" fill="#2076E2"/>
</g>
<defs>
<clipPath id="clip0_137_149">
<rect width="24" height="19" fill="white" transform="translate(0 0.92041)"/>
</clipPath>
</defs>
</svg>
