<svg width="50" height="51" viewBox="0 0 50 51" fill="none" xmlns="http://www.w3.org/2000/svg">
<rect x="0.5" y="1.42041" width="49" height="49" rx="24.5" fill="white"/>
<rect x="0.5" y="1.42041" width="49" height="49" rx="24.5" stroke="#2076E2"/>
<path d="M20.4899 16.7904C20.5089 16.6918 20.508 16.5905 20.4871 16.4923C20.4662 16.3941 20.4258 16.3011 20.3684 16.2188C20.3109 16.1365 20.2375 16.0666 20.1525 16.0132C20.0675 15.9598 19.9726 15.9241 19.8735 15.908C19.7745 15.8919 19.6732 15.8959 19.5757 15.9197C19.4782 15.9435 19.3864 15.9866 19.3059 16.0465C19.2253 16.1064 19.1576 16.1819 19.1068 16.2685C19.056 16.355 19.023 16.4509 19.0099 16.5504L16.0099 35.0504C15.9909 35.1489 15.9919 35.2503 16.0127 35.3485C16.0336 35.4467 16.074 35.5397 16.1315 35.6219C16.189 35.7042 16.2624 35.7741 16.3474 35.8275C16.4324 35.8809 16.5272 35.9167 16.6263 35.9328C16.7254 35.9489 16.8267 35.9449 16.9242 35.9211C17.0217 35.8973 17.1134 35.8541 17.194 35.7942C17.2745 35.7343 17.3422 35.6589 17.393 35.5723C17.4439 35.4858 17.4768 35.3899 17.4899 35.2904L20.4899 16.7904ZM30.9899 16.5504C30.9768 16.4509 30.9439 16.355 30.893 16.2685C30.8422 16.1819 30.7745 16.1064 30.694 16.0465C30.6134 15.9866 30.5217 15.9435 30.4242 15.9197C30.3267 15.8959 30.2254 15.8919 30.1263 15.908C30.0272 15.9241 29.9324 15.9598 29.8474 16.0132C29.7624 16.0666 29.689 16.1365 29.6315 16.2188C29.574 16.3011 29.5336 16.3941 29.5127 16.4923C29.4919 16.5905 29.4909 16.6918 29.5099 16.7904L32.5099 35.2904C32.523 35.3899 32.556 35.4858 32.6068 35.5723C32.6576 35.6589 32.7253 35.7343 32.8059 35.7942C32.8864 35.8541 32.9782 35.8973 33.0757 35.9211C33.1732 35.9449 33.2745 35.9489 33.3736 35.9328C33.4726 35.9167 33.5675 35.8809 33.6525 35.8275C33.7375 35.7741 33.8109 35.7042 33.8684 35.6219C33.9258 35.5397 33.9662 35.4467 33.9871 35.3485C34.008 35.2503 34.0089 35.1489 33.9899 35.0504L30.9899 16.5504ZM25.7499 16.6704C25.7499 16.4715 25.6709 16.2807 25.5302 16.1401C25.3896 15.9994 25.1988 15.9204 24.9999 15.9204C24.801 15.9204 24.6102 15.9994 24.4696 16.1401C24.3289 16.2807 24.2499 16.4715 24.2499 16.6704V20.1704C24.2499 20.3693 24.3289 20.5601 24.4696 20.7007C24.6102 20.8414 24.801 20.9204 24.9999 20.9204C25.1988 20.9204 25.3896 20.8414 25.5302 20.7007C25.6709 20.5601 25.7499 20.3693 25.7499 20.1704V16.6704ZM24.2499 27.6704C24.2499 27.8693 24.3289 28.0601 24.4696 28.2007C24.6102 28.3414 24.801 28.4204 24.9999 28.4204C25.1988 28.4204 25.3896 28.3414 25.5302 28.2007C25.6709 28.0601 25.7499 27.8693 25.7499 27.6704V24.1704C25.7499 23.9715 25.6709 23.7807 25.5302 23.6401C25.3896 23.4994 25.1988 23.4204 24.9999 23.4204C24.801 23.4204 24.6102 23.4994 24.4696 23.6401C24.3289 23.7807 24.2499 23.9715 24.2499 24.1704V27.6704ZM24.2499 31.6704C24.2499 31.4715 24.3289 31.2807 24.4696 31.1401C24.6102 30.9994 24.801 30.9204 24.9999 30.9204C25.1988 30.9204 25.3896 30.9994 25.5302 31.1401C25.6709 31.2807 25.7499 31.4715 25.7499 31.6704V35.1704C25.7499 35.3693 25.6709 35.5601 25.5302 35.7007C25.3896 35.8414 25.1988 35.9204 24.9999 35.9204C24.801 35.9204 24.6102 35.8414 24.4696 35.7007C24.3289 35.5601 24.2499 35.3693 24.2499 35.1704V31.6704Z" fill="#2076E2"/>
</svg>
