<svg width="50" height="51" viewBox="0 0 50 51" fill="none" xmlns="http://www.w3.org/2000/svg">
<rect x="0.5" y="1.42041" width="49" height="49" rx="24.5" fill="white"/>
<rect x="0.5" y="1.42041" width="49" height="49" rx="24.5" stroke="#2076E2"/>
<g clip-path="url(#clip0_46_386)">
<path d="M14 14.9204H36M18 14.9204V19.9204C18 22.9204 23 23.1554 23 25.9204C23 28.6854 18 28.9204 18 31.9204V36.9204M32 14.9204V19.9204C32 22.9204 27 23.1554 27 25.9204C27 28.6854 32 28.9204 32 31.9204V36.9204M14 36.9204H36M23 18.4204H27V19.9204C27 20.9204 25 21.9204 25 21.9204C25 21.9204 23 20.9204 23 19.9204V18.4204ZM21 34.9204C21 32.9204 25 30.9204 25 30.9204C25 30.9204 29 32.9204 29 34.9204V36.9204H21V34.9204Z" stroke="#2076E2"/>
</g>
<defs>
<clipPath id="clip0_46_386">
<rect width="24" height="24" fill="white" transform="translate(13 13.9204)"/>
</clipPath>
</defs>
</svg>
