<svg width="20" height="21" viewBox="0 0 20 21" fill="none" xmlns="http://www.w3.org/2000/svg">
<path d="M10 0.92041C15.523 0.92041 20 5.39741 20 10.9204C20 16.4434 15.523 20.9204 10 20.9204C4.477 20.9204 0 16.4434 0 10.9204C0 5.39741 4.477 0.92041 10 0.92041ZM10 4.92041C9.73478 4.92041 9.48043 5.02577 9.29289 5.2133C9.10536 5.40084 9 5.65519 9 5.92041V10.9204C9.00006 11.1856 9.10545 11.4399 9.293 11.6274L12.293 14.6274C12.4816 14.8096 12.7342 14.9104 12.9964 14.9081C13.2586 14.9058 13.5094 14.8006 13.6948 14.6152C13.8802 14.4298 13.9854 14.179 13.9877 13.9168C13.99 13.6546 13.8892 13.402 13.707 13.2134L11 10.5064V5.92041C11 5.65519 10.8946 5.40084 10.7071 5.2133C10.5196 5.02577 10.2652 4.92041 10 4.92041Z" fill="#2076E2"/>
</svg>
