<svg width="50" height="50" viewBox="0 0 50 50" fill="none" xmlns="http://www.w3.org/2000/svg">
<rect width="50" height="50" rx="25" fill="white" fill-opacity="0.2"/>
<path d="M25 10.45C16.7163 10.45 10 17.1656 10 25.45C10 33.7344 16.7163 40.45 25 40.45C33.2844 40.45 40 33.7344 40 25.45C40 17.1656 33.2844 10.45 25 10.45ZM33.0419 20.2006L23.2244 30.0181C23.1025 30.14 22.9425 30.2013 22.7825 30.2013C22.6225 30.2013 22.4625 30.14 22.3406 30.0181C22.34 30.0175 22.34 30.0175 22.34 30.0169C22.3363 30.0138 22.3331 30.01 22.33 30.0069L16.9581 24.635C16.7144 24.3906 16.7144 23.995 16.9581 23.7513C17.2025 23.5069 17.5981 23.5069 17.8425 23.7513L22.7831 28.6919L32.1581 19.3163C32.4025 19.0725 32.7981 19.0725 33.0419 19.3163C33.2862 19.5606 33.2862 19.9563 33.0419 20.2006Z" fill="white"/>
</svg>
