<svg width="20" height="19" viewBox="0 0 20 19" fill="none" xmlns="http://www.w3.org/2000/svg">
<path d="M8.94999 11.3504L7.15399 9.56042C7.06066 9.46709 6.94699 9.41709 6.81299 9.41042C6.67833 9.40376 6.55599 9.45576 6.44599 9.56642C6.33933 9.67309 6.28599 9.79109 6.28599 9.92042C6.28599 10.0498 6.33933 10.1678 6.44599 10.2744L8.38399 12.2124C8.54599 12.3738 8.73466 12.4544 8.94999 12.4544C9.16533 12.4544 9.35399 12.3738 9.51599 12.2124L13.554 8.17442C13.6513 8.07709 13.7023 7.96242 13.707 7.83042C13.7117 7.69776 13.6607 7.57642 13.554 7.46642C13.444 7.35642 13.325 7.30042 13.197 7.29842C13.069 7.29642 12.9503 7.35042 12.841 7.46042L8.94999 11.3504ZM6.66999 18.5364L5.35399 16.3364L2.87299 15.8124C2.67433 15.7758 2.51599 15.6691 2.39799 15.4924C2.27999 15.3164 2.23133 15.1291 2.25199 14.9304L2.48899 12.3744L0.805994 10.4544C0.664661 10.3098 0.593994 10.1318 0.593994 9.92042C0.593994 9.70909 0.664661 9.53109 0.805994 9.38642L2.48899 7.46642L2.25199 4.91142C2.23199 4.71209 2.28066 4.52442 2.39799 4.34842C2.51599 4.17242 2.67433 4.06576 2.87299 4.02842L5.35299 3.50542L6.66899 1.30542C6.77699 1.12676 6.92199 1.00342 7.10399 0.935425C7.28599 0.866758 7.47433 0.875758 7.66899 0.962425L9.99999 1.94742L12.33 0.962425C12.5253 0.875758 12.714 0.866758 12.896 0.935425C13.078 1.00342 13.223 1.12676 13.331 1.30542L14.646 3.50542L17.127 4.02842C17.3257 4.06576 17.484 4.17242 17.602 4.34842C17.72 4.52442 17.7687 4.71209 17.748 4.91142L17.512 7.46642L19.194 9.38642C19.3353 9.53109 19.406 9.70909 19.406 9.92042C19.406 10.1318 19.3353 10.3101 19.194 10.4554L17.512 12.3744L17.748 14.9294C17.768 15.1288 17.7193 15.3164 17.602 15.4924C17.484 15.6691 17.3257 15.7758 17.127 15.8124L14.647 16.3364L13.331 18.5364C13.223 18.7144 13.078 18.8378 12.896 18.9064C12.714 18.9751 12.5257 18.9658 12.331 18.8784L9.99999 17.8934L7.66999 18.8784C7.47466 18.9651 7.28599 18.9741 7.10399 18.9054C6.92199 18.8374 6.77699 18.7141 6.66899 18.5354" fill="#2076E2"/>
</svg>
